<?xml version="1.0" encoding="UTF-8"?>
<svg width="831px" height="594px" viewBox="0 0 831 594" version="1.1" xmlns="http://www.w3.org/2000/svg" xmlns:xlink="http://www.w3.org/1999/xlink">
    <!-- Generator: Sketch 63.1 (92452) - https://sketch.com -->
    <title>Isotipo</title>
    <desc>Created with Sketch.</desc>
    <g id="Page-1" stroke="none" stroke-width="1" fill="none" fill-rule="evenodd">
        <g id="Servicios" transform="translate(0.000000, -203.000000)" stroke="#86B941" stroke-width="4">
            <g id="Banner-Ttitle" transform="translate(0.000000, 203.000000)">
                <g id="Envolvente-azul-/-Servicios">
                    <path d="M2.60462191,378.384093 C192.556311,289.221534 428.522975,252.056824 590.692392,406.057652 C753.943687,560.89112 745.471312,819.158956 689.747529,1019.39933 C674.240599,1075.03646 657.483186,1133.21362 627.724494,1182.97083 C622.92395,1190.95574 618.558967,1196.41468 614.325121,1199.90428 C589.933672,1202.79045 574.904455,1139.64085 569.059499,1114.61957 C540.986852,995.327634 533.095226,839.722338 440.84047,748.286393 C351.466041,659.797429 197.37559,679.939813 84.3965323,694.07129 C-42.4174598,709.98499 -177.9099,750.910609 -306.377152,740.226632 C-414.298075,731.2781 -354.270194,647.228319 -308.686097,601.227343 C-245.42663,537.043959 -171.66685,480.461916 -95.4342043,432.538385 C-64.9027416,413.387684 -31.9358808,395.083655 2.60462191,378.384093 Z M847.133265,134.176069 C892.72531,115.724871 955.070886,124.699481 983.990219,164.73572 C999.702597,186.372366 978.380353,213.488544 967.398328,231.639494 C948.519703,263.010754 932.650439,294.832386 926.92172,331.087373 C916.686092,398.00053 939.363261,464.571216 965.548974,525.305825 C977.220347,551.985704 1052.30222,666.464765 1016.32301,691.371303 C980.923809,702.658764 930.045179,675.101597 905.480623,656.031136 C807.094037,580.237196 760.869693,438.815538 764.164301,319.363614 C765.775949,256.91196 780.518486,184.955569 832.40499,143.549447 C836.930916,140.082517 841.932254,136.915835 847.133265,134.176069 Z M24.640169,-377.625165 C53.2108065,-381.682747 91.8831714,-351.761593 113.468622,-337.939575 C159.59624,-308.248007 203.533349,-274.943972 248.340081,-243.612503 C319.80428,-193.515888 412.097122,-118.277258 504.300652,-120.235767 C510.900384,-120.362274 517.297988,-121.121313 523.451158,-122.339525 L523.451158,-122.339525 L523.413553,-122.428548 C531.569205,-124.035651 539.395811,-126.434591 546.851065,-129.597256 C547.292927,-129.794044 547.805299,-129.976776 548.251863,-130.206362 C550.630399,-131.255898 552.957228,-132.333547 555.265254,-133.537702 C581.010792,-144.25328 602.521032,-163.922714 620.172026,-186.834466 C629.68617,-199.311765 648.925989,-239.587719 668.913214,-254.014157 C675.879598,-255.443213 682.653255,-252.805316 689.036757,-243.992023 C738.652269,-174.685146 755.085791,-55.4737573 739.098832,26.1651705 C727.210852,86.2511216 692.416535,131.69979 643.727055,156.012485 C640.963064,157.193213 638.180271,158.275548 635.369273,159.306342 C613.807326,167.196606 589.937353,171.343211 564.567868,170.977748 C371.243649,168.813079 196.947718,-3.54045403 101.359711,-156.486937 C87.4128397,-179.056652 -7.62048985,-346.565451 24.640169,-377.625165 Z" id="Isotipo"></path>
                </g>
            </g>
        </g>
    </g>
</svg>