<?xml version="1.0" encoding="UTF-8"?>
<svg width="39px" height="40px" viewBox="0 0 39 40" version="1.1" xmlns="http://www.w3.org/2000/svg" xmlns:xlink="http://www.w3.org/1999/xlink">
    <!-- Generator: Sketch 63.1 (92452) - https://sketch.com -->
    <title>Tryadd Icon Green</title>
    <desc>Created with Sketch.</desc>
    <g id="Symbols" stroke="none" stroke-width="1" fill="none" fill-rule="evenodd">
        <g id="Contact-Footer" transform="translate(-893.000000, -187.000000)" fill="#86B941">
            <g id="Form">
                <g transform="translate(850.000000, 157.000000)">
                    <g id="Tryadd-Icon-Green">
                        <g transform="translate(43.107500, 30.000000)">
                            <g id="Tryadd-Icon">
                                <path d="M36.2447801,23.849392 C35.4430647,22.3552188 34.7489923,20.7174093 35.0623901,19.0707059 C35.2378705,18.1786489 35.7233848,17.3959868 36.3014048,16.6239973 C36.6377888,16.1775241 37.2903739,15.5100378 36.8093447,14.9777386 C35.924094,13.9927405 34.015675,13.7717274 32.6202418,14.2257604 C32.4604593,14.2933539 32.3079652,14.3711755 32.1689265,14.4565568 C30.580633,15.4753517 30.1298784,17.2456801 30.0799814,18.7820993 C29.9796268,21.7215293 31.3946825,25.201263 34.4058805,27.0658666 C35.1582596,27.5350192 36.7151572,28.2131782 37.7988745,27.9352442 C38.8999717,27.3224553 36.6019079,24.5062056 36.2447801,23.849392" id="Fill-15"></path>
                                <path d="M28.1082913,35.781401 C29.5903106,31.1040792 29.815877,25.0712561 25.4734837,21.4539196 C21.159886,17.8567893 14.8833807,18.7248153 9.83117299,20.8077411 C8.91210985,21.197553 8.03528042,21.6252516 7.22324134,22.0727354 C5.19554329,23.1920765 3.23359545,24.5139008 1.55096602,26.0133716 C0.338666544,27.0876696 -1.25805568,29.0510419 1.61239687,29.2602605 C5.02948802,29.5098917 8.63327137,28.5538844 12.006689,28.1821739 C15.0115216,27.8517178 19.1101112,27.3815019 21.4876772,29.4484311 C23.9415518,31.5843982 24.1512805,35.2189942 24.8980493,38.0057704 C25.0535462,38.5900672 25.4533267,40.0651222 26.10219,39.9977681 C26.2144933,39.9165222 26.330636,39.7889703 26.458297,39.6024837 C27.2501791,38.4397834 27.6960327,37.0809143 28.1082913,35.781401" id="Fill-17"></path>
                                <path d="M27.6061722,3.41728083 C27.4386852,3.19264745 27.2612345,3.12498125 27.079039,3.16180639 C26.5552271,3.52959752 26.0513429,4.55701905 25.8017731,4.87509623 C25.3396419,5.45923508 24.7759748,5.96051736 24.1012823,6.23394405 C24.041025,6.26478511 23.9798187,6.29240397 23.9176635,6.3191022 C23.9058018,6.32462597 23.8925167,6.32968943 23.880655,6.33429257 C23.685649,6.41530789 23.4806791,6.47652969 23.2666944,6.51703735 L23.2676433,6.51933892 C23.1067989,6.55064029 22.9393119,6.56997349 22.7661314,6.57319569 C20.3506184,6.62290964 17.9322587,4.70431962 16.0600107,3.42694743 C14.8857042,2.6278418 13.735121,1.77856191 12.5261784,1.02134488 C11.9606134,0.669204439 10.9476257,-0.0939966758 10.1989163,0.00957404246 C9.3538901,0.801314644 11.84342,5.07349169 12.2087598,5.64888457 C14.7134726,9.54912766 19.2802202,13.9442086 24.3451585,13.9994463 C25.0098872,14.0086526 25.6352351,13.9027803 26.2003256,13.701623 C26.2733936,13.6758454 26.3464615,13.6482265 26.419055,13.6178458 C27.6948976,12.9978024 28.6063492,11.838731 28.9180742,10.306805 C29.3365544,8.22480341 28.9062125,5.18442744 27.6061722,3.41728083" id="Fill-19"></path>
                            </g>
                        </g>
                    </g>
                </g>
            </g>
        </g>
    </g>
</svg>