<?xml version="1.0" encoding="UTF-8"?>
<svg width="38px" height="39px" viewBox="0 0 38 39" version="1.1" xmlns="http://www.w3.org/2000/svg" xmlns:xlink="http://www.w3.org/1999/xlink">
    <!-- Generator: Sketch 63.1 (92452) - https://sketch.com -->
    <title>Tryadd Icon White</title>
    <desc>Created with Sketch.</desc>
    <g id="Symbols" stroke="none" stroke-width="1" fill="none" fill-rule="evenodd">
        <g id="CTA-Puerquito" transform="translate(-759.000000, -157.000000)" fill="#FFFFFF">
            <g id="CTA-puerquito">
                <g id="Tryadd-Icon-White" transform="translate(759.554825, 157.000000)">
                    <g id="Tryadd-Icon">
                        <path d="M35.364493,23.2531572 C34.5822491,21.7963383 33.9050337,20.1994741 34.21082,18.5939383 C34.3820384,17.7241827 34.8557609,16.9610871 35.4197423,16.2083974 C35.7479566,15.773086 36.3846921,15.1222869 35.9153458,14.6032952 C35.0515954,13.642922 33.1895268,13.4274342 31.8279848,13.8701164 C31.672083,13.9360201 31.5232926,14.0118961 31.3876307,14.0951429 C29.8379126,15.0884679 29.3981055,16.8145381 29.3494204,18.3125468 C29.2515032,21.178491 30.632191,24.5712314 33.5702552,26.3892199 C34.304361,26.8466437 35.8234458,27.5078487 36.8808426,27.2368631 C37.9551972,26.6393939 35.712947,23.8935505 35.364493,23.2531572" id="Fill-15"></path>
                        <path d="M27.4256173,34.886866 C28.8716424,30.3264772 29.0917304,24.4444747 24.854802,20.9175716 C20.6459699,17.4103696 14.5219038,18.256695 9.59240053,20.2875476 C8.69565894,20.6676142 7.84012531,21.0846203 7.04780845,21.520917 C5.06935768,22.6122746 3.15506021,23.9010533 1.51329727,25.3630373 C0.330441255,26.4104779 -1.22750093,28.3247658 1.57323613,28.528754 C4.90733543,28.7721444 8.42359269,27.8400372 11.7150792,27.4776195 C14.6469325,27.1554248 18.6459786,26.6969644 20.9657999,28.7122203 C23.3600766,30.7947882 23.5647116,34.3385193 24.2933434,37.0556261 C24.4450637,37.6253156 24.8351346,39.0634941 25.4682388,38.9978239 C25.5778146,38.9186091 25.6911365,38.7942461 25.8156969,38.6124216 C26.5883463,37.4787888 27.0233714,36.1538914 27.4256173,34.886866" id="Fill-17"></path>
                        <path d="M26.9356933,3.33184881 C26.7722742,3.11283126 26.5991332,3.04685672 26.4213628,3.08276123 C25.9102729,3.44135758 25.4186266,4.44309357 25.1751182,4.75321882 C24.7242109,5.3227542 24.1742338,5.81150442 23.5159277,6.07809545 C23.4571339,6.10816548 23.3974141,6.13509387 23.3367685,6.16112464 C23.3251949,6.16651032 23.3122325,6.17144719 23.3006589,6.17593526 C23.110389,6.25492519 22.9103973,6.31461645 22.7016096,6.35411142 L22.7025355,6.35635545 C22.5455976,6.38687429 22.3821784,6.40572416 22.213204,6.4088658 C19.8563572,6.4573369 17.4967329,4.58671163 15.6699568,3.34127374 C14.5241709,2.56214575 13.4015323,1.73409786 12.2219516,0.995811259 C11.6701226,0.652474328 10.6817377,-0.0916467589 9.95121239,0.00933469139 C9.12670954,0.781281778 11.5557755,4.9466544 11.9122422,5.50766246 C14.3561223,9.31039947 18.8119561,13.5956034 23.7538808,13.6494602 C24.402465,13.6584363 25.0126249,13.5552108 25.5639909,13.3590824 C25.6352843,13.3339493 25.7065776,13.3070209 25.777408,13.2773996 C27.0222638,12.6728574 27.9115788,11.5427627 28.2157328,10.0491349 C28.6240492,8.01918333 28.2041592,5.05481675 26.9356933,3.33184881" id="Fill-19"></path>
                    </g>
                </g>
            </g>
        </g>
    </g>
</svg>