<?xml version="1.0" encoding="UTF-8"?>
<svg width="158px" height="66px" viewBox="0 0 158 66" version="1.1" xmlns="http://www.w3.org/2000/svg" xmlns:xlink="http://www.w3.org/1999/xlink">
    <!-- Generator: Sketch 63.1 (92452) - https://sketch.com -->
    <title>Tryadd Health Care</title>
    <desc>Created with Sketch.</desc>
    <g id="Page-1" stroke="none" stroke-width="1" fill="none" fill-rule="evenodd">
        <g id="Servicios" transform="translate(-217.000000, -1688.000000)">
            <g id="Tryadd-Health-Care" transform="translate(217.000000, 1688.000000)">
                <g id="Tryadd_Health">
                    <path d="M146.562404,3.62299458 L146.78586,3.62299458 C147.048458,3.62299458 147.260946,3.53416557 147.260946,3.3184694 C147.260946,3.12695934 147.123517,3.0031704 146.825002,3.0031704 C146.703489,3.0031704 146.61187,3.01152561 146.562404,3.02515778 L146.562404,3.62299458 Z M146.552296,4.79470193 L146.07807,4.79470193 L146.07807,2.70700043 C146.264535,2.68193482 146.526273,2.64389665 146.858553,2.64389665 C147.248257,2.64389665 147.421387,2.70700043 147.556234,2.80968148 C147.683985,2.89829061 147.771733,3.05044326 147.771733,3.25382651 C147.771733,3.50909996 147.584408,3.67378542 147.348263,3.74986175 L147.348263,3.77404786 C147.546556,3.83869075 147.643982,4.00535507 147.708287,4.28305565 C147.771733,4.60319187 147.818833,4.71774611 147.857115,4.79470193 L147.362673,4.79470193 C147.299228,4.71774611 147.260946,4.54030797 147.198361,4.28305565 C147.160509,4.06735948 147.03835,3.96643742 146.774461,3.96643742 L146.552296,3.96643742 L146.552296,4.79470193 Z M145.291351,3.71006459 C145.291351,4.64210953 145.975913,5.37868668 146.886297,5.37868668 C147.771733,5.3936381 148.44081,4.64210953 148.44081,3.72501601 C148.44081,2.79846792 147.771733,2.04518036 146.858553,2.04518036 C145.975913,2.04518036 145.291351,2.79846792 145.291351,3.71006459 L145.291351,3.71006459 Z M148.966436,3.71006459 C148.966436,4.88265144 148.041428,5.80985915 146.875758,5.80985915 C145.703422,5.80985915 144.771746,4.88265144 144.771746,3.71006459 C144.771746,2.53923673 145.703422,1.62676056 146.886297,1.62676056 C148.041428,1.62676056 148.966436,2.53923673 148.966436,3.71006459 L148.966436,3.71006459 Z" id="Fill-1" fill="#253B80"></path>
                    <path d="M89.9426055,35.6575934 C91.6151167,35.6575934 92.9492955,34.7000582 93.9407394,32.784087 C94.9310826,30.8681158 95.4268045,28.7710441 95.4268045,26.4917456 C95.4268045,25.0828107 95.0950758,23.9430489 94.432499,23.0747125 C93.769482,22.2023217 92.8892013,21.7702934 91.7964999,21.7702934 C90.1244289,21.7702934 88.8615707,22.7618411 88.0147491,24.7415579 C87.1613237,26.7257797 86.7369224,28.9262409 86.7369224,31.3503747 C86.7369224,34.2223043 87.8043094,35.6575934 89.9426055,35.6575934 L89.9426055,35.6575934 Z M97.9366719,38.8194189 L93.7285387,38.8194189 L94.4023419,34.6705506 C92.8214028,37.7406996 90.7460625,39.2746479 88.1842455,39.2746479 C86.4239044,39.2746479 85.004317,38.5529489 83.9270243,37.1100014 C82.8541342,35.6690811 82.3174689,33.6440891 82.3174689,31.0357013 C82.3174689,27.4783379 83.1356743,24.4275603 84.7652611,21.8772868 C86.4025522,19.3315183 88.4816346,18.0554806 91.0062504,18.0554806 C93.7078469,18.0554806 95.4906408,19.3846772 96.3504498,22.0459986 L98.0330868,11.8521127 L102.358767,11.8521127 L97.9366719,38.8194189 Z" id="Fill-3" fill="#253B80"></path>
                    <path d="M9.36455154,38.5182427 C8.04728144,38.7164701 7.11750923,38.8098592 6.57011279,38.8098592 C4.73172486,38.8073897 3.38973506,38.3857919 2.53768512,37.5522493 C1.68741678,36.7187067 1.26005561,35.7010799 1.26295071,34.509022 C1.26651391,33.8918907 1.41661367,32.6888326 1.72015367,30.9038887 L3.23896721,22.0456189 L0.287970412,22.0400065 L0.901063325,18.4400366 L3.88746941,18.4454244 L5.09116255,13.0501838 L9.07392813,12.7816901 L8.12611722,18.4501387 L12.4059645,18.4577715 L11.815587,22.0615579 L7.5179237,22.0521291 L6.01625806,30.9710121 C5.83253062,32.0728238 5.73966475,32.7808748 5.73966475,33.0971854 C5.73676965,34.3698363 6.67144126,35.0107639 8.54791089,35.0125598 C8.93986277,35.0125598 9.41577253,34.9687837 9.97452665,34.8747211 L9.36455154,38.5182427 Z" id="Fill-5" fill="#253B80"></path>
                    <path d="M17.2879425,38.3450704 L12.8720412,38.3450704 L16.2279823,18.4410452 L20.2892894,18.4410452 L19.3815551,23.8620929 C21.1030348,19.8836084 23.4188028,17.8943662 26.3245868,17.8943662 C26.4417356,17.8943662 26.6216185,17.8992752 26.8543421,17.9133326 L26.2827641,22.8073371 C25.8492462,22.7801147 25.5216344,22.7651647 25.2992541,22.7651647 C24.2062404,22.7651647 23.1784342,23.0545699 22.2111137,23.6284713 C21.2431187,24.2030421 20.4885097,24.9741942 19.9427899,25.9470597 C19.3963954,26.9183633 18.9385933,28.514666 18.5752298,30.7321746 L17.2879425,38.3450704 Z" id="Fill-7" fill="#253B80"></path>
                    <path d="M25.9221887,45.6011482 L26.1178273,41.7682954 C26.8834775,41.8868535 27.7647529,41.9456817 28.7675135,41.9456817 C29.703784,41.9456817 30.477999,41.7513907 31.0908347,41.3612308 C31.7016419,40.9735503 32.2621871,40.2457478 32.7623278,39.1784995 L33.5119753,37.5761618 L28.589906,18.3591549 L33.3334663,18.3591549 L36.3787121,32.1979965 L43.0234379,18.3591549 L46.89564,18.3591549 L36.5777316,39.1784995 C35.6139634,41.1015751 34.8769378,42.4323109 34.3639499,43.1704816 C33.8484827,43.9093286 33.1010891,44.5289412 32.1170359,45.0299957 C31.1363635,45.5317264 29.8669664,45.7816901 28.313127,45.7816901 C27.5749744,45.7816901 26.776868,45.7226365 25.9221887,45.6011482" id="Fill-9" fill="#253B80"></path>
                    <path d="M70.5246262,35.6599467 C72.2343669,35.6648863 73.5977513,34.7073985 74.61343,32.7912961 C75.6279841,30.8729397 76.1394219,28.7751671 76.1427955,26.4964004 C76.1427955,25.0869911 75.8099336,23.9444522 75.1320648,23.0755457 C74.4559953,22.2037089 73.5586176,21.7653112 72.4399317,21.7646319 C70.7310906,21.7626064 69.4419254,22.7527767 68.5699621,24.7337936 C67.700023,26.7163882 67.2598806,28.9196468 67.2551575,31.3435693 C67.2551575,34.2178356 68.3428063,35.6578989 70.5246262,35.6599467 L70.5246262,35.6599467 Z M78.6876148,38.8380294 L74.3842501,38.8317183 L75.0830352,34.6808017 C73.461233,37.7471065 71.3419372,39.2795827 68.7262722,39.2746359 C66.9227454,39.2728208 65.472547,38.5488447 64.3754521,37.101794 C63.2803814,35.6578989 62.7347578,33.6295487 62.7423253,31.0198988 C62.7480273,27.4624532 63.5878289,24.4092215 65.2613596,21.8629082 C66.93579,19.3138902 69.0622829,18.0415224 71.6408382,18.048059 C74.3995437,18.0518907 76.2210631,19.3851157 77.0966249,22.049988 L78.8308804,11.8521127 L83.2496223,11.8577476 L78.6876148,38.8380294 Z" id="Fill-11" fill="#253B80"></path>
                    <path d="M55.5560999,32.3784614 C54.5389261,34.2784438 53.1730393,35.2257507 51.4507457,35.2257507 C49.2641049,35.2257507 48.1706713,33.8019942 48.1706713,30.9589549 C48.1706713,28.5581414 48.6040168,26.3747498 49.4745546,24.4096751 C50.3441873,22.4468372 51.6394716,21.4657538 53.3570131,21.4657538 C54.4798644,21.4657538 55.3809514,21.894111 56.0571061,22.7555228 C56.7398232,23.6162636 57.0808423,24.7469924 57.0808423,26.1421172 C57.0808423,28.4020091 56.5714634,30.4816107 55.5560999,32.3784614 L55.5560999,32.3784614 Z M58.764214,17.4295775 C58.7212189,17.6883813 58.6947429,17.8474215 58.6947429,17.8474215 L58.0305816,21.7359655 C57.1439772,19.103414 55.3189479,17.7832238 52.5450844,17.7832238 C49.9574576,17.7832238 47.8258053,19.0468217 46.1494486,21.5720042 C44.4694712,24.0974105 43.6331032,27.1214111 43.6331032,30.6453482 C43.6331032,33.2300311 44.1836669,35.2358165 45.2866046,36.6680731 C46.389316,38.0945138 47.8448137,38.8098592 49.6546815,38.8098592 C52.2814565,38.8098592 54.405415,37.2894706 56.0306301,34.2484699 L55.3388614,38.3573439 L59.6537602,38.3573439 L63.1644241,17.6910655 L63.2083244,17.4295775 L58.764214,17.4295775 Z" id="Fill-13" fill="#253B80"></path>
                    <path d="M155.348639,37.8243794 C154.277084,35.2939938 153.349421,32.5208741 153.768273,29.7330971 C154.002565,28.2229495 154.651952,26.8973508 155.424231,25.5904068 C155.873585,24.8342226 156.745991,23.7044989 156.103236,22.803074 C154.920061,21.1354713 152.369152,20.7614876 150.503657,21.5301084 C150.290805,21.6442578 150.086131,21.7759515 149.901129,21.920526 C147.777913,23.6454255 147.174943,26.6430686 147.108855,29.244742 C146.974026,34.2211227 148.865381,40.1129193 152.891004,43.2702383 C153.896028,44.0648425 155.977691,45.2127768 157.42588,44.7426323 C158.898162,43.7048499 155.826064,38.9358925 155.348639,37.8243794" id="Fill-15" fill="#95C846"></path>
                    <path d="M144.173448,58.2045208 C146.525906,49.8189525 146.883571,39.0033234 139.991776,32.5191546 C133.145589,26.0701558 123.184209,27.6265343 115.165275,31.3601067 C113.707205,32.0597202 112.315412,32.826112 111.026514,33.6281189 C107.808426,35.6350281 104.694582,38.0045433 102.024225,40.6925907 C100.099753,42.6189208 97.5655425,46.1388027 102.121505,46.5136514 C107.544895,46.9606205 113.264842,45.2470904 118.618137,44.5806434 C123.38753,43.9887655 129.892903,43.1453561 133.665686,46.8508816 C137.560237,50.6799468 137.893414,57.1963917 139.078517,62.1920731 C139.325198,63.239824 139.959649,65.8844655 140.98951,65.7635969 C141.168117,65.6175751 141.352342,65.3887483 141.555214,65.0544118 C142.811535,62.9707076 143.518777,60.5344142 144.173448,58.2045208" id="Fill-17" fill="#95C846"></path>
                    <path d="M143.837919,5.79157463 C143.571934,5.42604568 143.289701,5.31649742 142.999231,5.37590968 C142.16633,5.97444954 141.364814,7.6452813 140.968173,8.16276429 C140.232763,9.11313957 139.336203,9.92900904 138.263359,10.3736071 C138.167204,10.4237431 138.070381,10.4683575 137.971332,10.5118676 C137.952635,10.5213647 137.931267,10.5288741 137.913016,10.537046 C137.602069,10.6682389 137.276209,10.7676274 136.936104,10.8345491 L136.937885,10.8383037 C136.681471,10.8886606 136.414818,10.9202441 136.139707,10.9255448 C132.297501,11.0066017 128.45151,7.8855807 125.473589,5.80725594 C123.606351,4.50769559 121.775616,3.12619491 119.8534,1.89421877 C118.953947,1.32085733 117.342455,0.0798257904 116.151643,0.247902851 C114.807471,1.53642003 118.767423,8.48544574 119.348807,9.42168577 C123.33213,15.7664292 130.595195,22.9162197 138.651097,23.0061111 C139.70836,23.0213507 140.703078,22.8490772 141.601641,22.5219785 C141.718719,22.4793519 141.834684,22.4345166 141.949981,22.3854849 C143.978814,21.3765808 145.428489,19.4912907 145.924178,16.998847 C146.590143,13.6121274 145.905481,8.66677461 143.837919,5.79157463" id="Fill-19" fill="#95C846"></path>
                    <polygon id="Fill-21" fill="#253B80" points="49.233451 46.0897787 45.4899824 46.0897787 45.4899824 49.5 44.5652565 49.5 44.5652565 42.0633803 45.4899824 42.0633803 45.4899824 45.3034049 49.233451 45.3034049 49.233451 42.0633803 50.1581769 42.0633803 50.1581769 49.5 49.233451 49.5"></polygon>
                    <path d="M53.6025974,45.1324051 C53.1553122,45.1324051 52.7973449,45.2425381 52.5284634,45.4625869 C52.2591179,45.6824184 52.0981139,46.0586518 52.0452191,46.5906354 L54.8644148,46.5906354 C54.8644148,46.0514834 54.7544494,45.6735122 54.5347508,45.4571562 C54.3148201,45.2408003 54.0041796,45.1324051 53.6025974,45.1324051 L53.6025974,45.1324051 Z M55.5578459,49.4112999 C55.3304915,49.5816041 55.0442104,49.716718 54.6996988,49.8159897 C54.3547231,49.9152615 53.9891,49.9647887 53.6025974,49.9647887 C53.1706238,49.9647887 52.7954889,49.8989696 52.4771927,49.767983 C52.1588964,49.636562 51.8974387,49.4486625 51.6928197,49.2038501 C51.4882006,48.9588205 51.3364763,48.6664359 51.2381107,48.3256101 C51.1395131,47.9850016 51.0903303,47.601817 51.0903303,47.1760563 C51.0903303,46.2680565 51.3063171,45.5759782 51.7382906,45.1006903 C52.1702641,44.6251851 52.7878331,44.3873239 53.5912296,44.3873239 C53.8487434,44.3873239 54.1064891,44.4138254 54.3642349,44.4670455 C54.6217486,44.5204828 54.853047,44.6214923 55.0576661,44.7705085 C55.2622851,44.919742 55.4288571,45.1306673 55.5578459,45.4039362 C55.6866028,45.677205 55.7510973,46.0371465 55.7510973,46.4844125 C55.7510973,46.7183636 55.7283618,46.9775128 55.6828909,47.2612085 L52.0338514,47.2612085 C52.0338514,47.5735778 52.0679546,47.8503222 52.1361609,48.0914418 C52.2043673,48.3327786 52.3103887,48.5369699 52.4544572,48.7033641 C52.5982937,48.87041 52.7857452,48.9981382 53.0172756,49.086766 C53.248342,49.1753937 53.5304471,49.2197076 53.864055,49.2197076 C54.1215688,49.2197076 54.3793145,49.1771315 54.6370603,49.0921966 C54.894574,49.0068272 55.0878253,48.9075555 55.2168142,48.7939469 L55.5578459,49.4112999 Z" id="Fill-23" fill="#253B80"></path>
                    <path d="M58.9945619,49.2081559 C59.194674,49.2081559 59.3735488,49.1812436 59.5309673,49.1271984 C59.688167,49.0731532 59.8241293,49.0045489 59.9386354,48.921606 C60.0529226,48.8388838 60.147943,48.7471173 60.2230398,48.6460858 C60.2981365,48.545275 60.3533097,48.4479936 60.389216,48.3542417 L60.389216,47.457312 C60.288941,47.4500324 60.1871335,47.4447382 60.0835744,47.4407675 C59.9797964,47.4374586 59.8777699,47.4354733 59.7777138,47.4354733 C59.5559266,47.4354733 59.3396129,47.4480471 59.1287728,47.4734152 C58.9177137,47.4985628 58.7318328,47.545549 58.5706922,47.6137122 C58.4099895,47.6823165 58.2812522,47.7760684 58.1846992,47.8949678 C58.0881463,48.0138673 58.0397603,48.1634291 58.0397603,48.3434327 C58.0397603,48.5957907 58.1290882,48.8027066 58.307963,48.9648422 C58.4866189,49.1271984 58.7156311,49.2081559 58.9945619,49.2081559 L58.9945619,49.2081559 Z M57.4711706,44.8739513 C57.7428763,44.7080657 58.059465,44.5856367 58.4204987,44.506444 C58.7817513,44.4270306 59.1589866,44.3873239 59.5524236,44.3873239 C59.9241853,44.3873239 60.2230398,44.4378397 60.4483301,44.5386505 C60.6734014,44.6396819 60.8452701,44.7711552 60.9632792,44.9330702 C61.0812884,45.0952058 61.1598882,45.2736652 61.1992976,45.468228 C61.2384881,45.6627907 61.2581927,45.857574 61.2581927,46.0519161 C61.2581927,46.4842778 61.2474646,46.9058303 61.2260084,47.3165739 C61.2045522,47.7273174 61.1938241,48.1164428 61.1938241,48.4839502 C61.1938241,48.7506467 61.2045522,49.0027841 61.2260084,49.240583 C61.2474646,49.4783819 61.2866551,49.6983128 61.3440176,49.8999345 L60.7110592,49.8999345 L60.485769,49.1433017 L60.4321284,49.1433017 C60.3677598,49.2443331 60.2874084,49.3431586 60.1908555,49.4406606 C60.0940835,49.5377213 59.9778259,49.6244143 59.8420825,49.6998569 C59.7061201,49.7755202 59.5487016,49.8388303 59.3700457,49.8891255 C59.1911709,49.9394206 58.9873369,49.9647887 58.7585436,49.9647887 C58.5295313,49.9647887 58.3169396,49.9288321 58.1203306,49.8566983 C57.9235027,49.7847851 57.7536045,49.6819889 57.610636,49.548751 C57.4674486,49.4152924 57.3549129,49.2551421 57.2728101,49.0676384 C57.1904882,48.8803552 57.1493273,48.6677039 57.1493273,48.429905 C57.1493273,48.1129134 57.213696,47.8482022 57.3424333,47.6353303 C57.4711706,47.4228995 57.6517969,47.253705 57.8843122,47.1273054 C58.1166086,47.001347 58.3955394,46.9113451 58.7208857,46.8572999 C59.0464509,46.8032547 59.4057331,46.7761218 59.79917,46.7761218 L60.0940835,46.7761218 C60.1908555,46.7761218 60.288941,46.7834014 60.389216,46.7977399 C60.4106722,46.5815591 60.4214003,46.3869964 60.4214003,46.2140518 C60.4214003,45.8178673 60.3425816,45.5403618 60.1853819,45.3817557 C60.0279634,45.2233701 59.7418075,45.1439568 59.3271333,45.1439568 C59.2054021,45.1439568 59.0751322,45.1532217 58.9354479,45.1717514 C58.7962014,45.1905018 58.653014,45.2160906 58.5065425,45.2498412 C58.359852,45.2831507 58.2203866,45.3239604 58.0881463,45.371829 C57.955687,45.4201388 57.8394293,45.4737428 57.7393733,45.5330822 L57.4711706,44.8739513 Z" id="Fill-25" fill="#253B80"></path>
                    <path d="M64.154673,48.4665855 C64.154673,48.7259117 64.2019904,48.9104976 64.2966253,49.0214756 C64.3912602,49.1324536 64.5252458,49.1881691 64.6988235,49.1881691 C64.8011836,49.1881691 64.9117519,49.1806951 65.0300455,49.165747 C65.1483391,49.1510254 65.2823247,49.117732 65.4322437,49.0658668 L65.5387079,49.7650283 C65.4124476,49.8243676 65.23718,49.8721561 65.0124222,49.9092997 C64.7876644,49.9462169 64.5923593,49.9647887 64.4267482,49.9647887 C64.0718675,49.9647887 63.7799962,49.8705707 63.5513758,49.681908 C63.3225139,49.4932454 63.2083244,49.173221 63.2083244,48.7218349 L63.2083244,42.0633803 L64.154673,42.0633803 L64.154673,48.4665855 Z" id="Fill-27" fill="#253B80"></path>
                    <path d="M65.5387079,44.3345404 L66.4561585,44.3345404 L66.4561585,43.2458791 L67.3971336,42.9929577 L67.3971336,44.3345404 L68.9967911,44.3345404 L68.9967911,45.1043009 L67.3971336,45.1043009 L67.3971336,48.1503532 C67.3971336,48.5316428 67.448023,48.8009467 67.550042,48.9584896 C67.6518209,49.1164812 67.824413,49.1950282 68.0675783,49.1950282 C68.2713762,49.1950282 68.4439683,49.1748304 68.5851145,49.1346592 C68.7262608,49.0942636 68.88301,49.0410761 69.0556021,48.9750966 L69.2673214,49.6458879 C69.0556021,49.7412664 68.824199,49.8182425 68.5733524,49.8768161 C68.3222657,49.9353897 68.0517353,49.9647887 67.7617614,49.9647887 C67.2833524,49.9647887 66.9460897,49.8382159 66.7502132,49.5852946 C66.5540968,49.3325977 66.4561585,48.9091172 66.4561585,48.3153019 L66.4561585,45.1043009 L65.5387079,45.1043009 L65.5387079,44.3345404 Z" id="Fill-29" fill="#253B80"></path>
                    <path d="M73.5573192,49.5 L73.5573192,46.4722334 C73.5573192,46.1960161 73.541735,45.9536213 73.5103533,45.7446154 C73.4787581,45.5358264 73.4213317,45.3619439 73.3376471,45.2238353 C73.2539625,45.0859434 73.140604,44.9814405 72.9975717,44.9105433 C72.8545394,44.8398629 72.6681704,44.8043058 72.4380377,44.8043058 C72.1101307,44.8043058 71.813819,44.9124946 71.5488889,45.1284384 C71.2837454,45.3443822 71.1129605,45.622334 71.0363208,45.9622938 L71.0363208,49.5 L70.1994748,49.5 L70.1994748,42.0633803 L71.0363208,42.0633803 L71.0363208,44.7830584 L71.0781631,44.7830584 C71.2594085,44.5634287 71.4773727,44.3884622 71.7320557,44.2570747 C71.9865252,44.1263376 72.3020503,44.0606439 72.6786309,44.0606439 C72.971527,44.0606439 73.2259965,44.0942496 73.4422528,44.1616778 C73.6582957,44.2288893 73.8378333,44.3474849 73.9808657,44.5174648 C74.123898,44.6874447 74.2285038,44.9157467 74.2948964,45.2028046 C74.3610755,45.4896456 74.3941651,45.8525874 74.3941651,46.2916298 L74.3941651,49.5 L73.5573192,49.5 Z" id="Fill-31" fill="#253B80"></path>
                    <path d="M79.9870855,49.485808 C79.7597435,49.6419926 79.490413,49.7610318 79.1800217,49.8424912 C78.8691664,49.9239505 78.5432323,49.9647887 78.2024514,49.9647887 C77.7628464,49.9647887 77.391444,49.8989696 77.0882441,49.767983 C76.7852762,49.636562 76.5370559,49.4486625 76.3438153,49.2038501 C76.1505747,48.9588205 76.0102259,48.6646981 75.9232328,48.3203968 C75.8360077,47.9763126 75.7923952,47.5948658 75.7923952,47.1760563 C75.7923952,46.2750077 76.0046583,45.5848844 76.4291845,45.1059037 C76.8534788,44.6269229 77.4635902,44.3873239 78.2592869,44.3873239 C78.623034,44.3873239 78.9315694,44.4138254 79.1855892,44.4670455 C79.439377,44.5204828 79.6688068,44.5967287 79.8734145,44.6960004 L79.6119713,45.4304376 C79.4375212,45.3383343 79.2442806,45.2653467 79.0322494,45.2123439 C78.8199863,45.1591238 78.5926444,45.1324051 78.3499917,45.1324051 C77.2740613,45.1324051 76.7358641,45.8136222 76.7358641,47.1760563 C76.7358641,47.4458496 76.7643979,47.7030438 76.8212333,47.9478562 C76.8780688,48.1926686 76.9727173,48.4092417 77.1054107,48.596924 C77.2378722,48.7850407 77.4123223,48.9360119 77.6282971,49.0494033 C77.8442719,49.1630119 78.1115147,49.2197076 78.4297934,49.2197076 C78.7023717,49.2197076 78.9471122,49.1808243 79.162855,49.1026234 C79.3788298,49.0246397 79.5551358,48.9360119 79.691541,48.836523 L79.9870855,49.485808 Z" id="Fill-33" fill="#253B80"></path>
                    <path d="M82.7644734,49.2081559 C82.9645855,49.2081559 83.1434603,49.1812436 83.3008788,49.1271984 C83.4580785,49.0731532 83.5940408,49.0045489 83.708547,48.921606 C83.8228341,48.8388838 83.9178545,48.7471173 83.9927323,48.6460858 C84.068048,48.545275 84.1232212,48.4479936 84.1591275,48.3542417 L84.1591275,47.457312 C84.0588525,47.4500324 83.957045,47.4447382 83.8534859,47.4407675 C83.7497079,47.4374586 83.6476814,47.4354733 83.5476253,47.4354733 C83.3258381,47.4354733 83.1095244,47.4480471 82.8984653,47.4734152 C82.6874062,47.4985628 82.5017443,47.545549 82.3406037,47.6137122 C82.179901,47.6823165 82.0509448,47.7760684 81.9546108,47.8949678 C81.8578388,48.0138673 81.8096718,48.1634291 81.8096718,48.3434327 C81.8096718,48.5957907 81.8989997,48.8027066 82.0778745,48.9648422 C82.2567493,49.1271984 82.4857616,49.2081559 82.7644734,49.2081559 L82.7644734,49.2081559 Z M81.2410821,44.8739513 C81.5127878,44.7080657 81.8293765,44.5856367 82.1906291,44.506444 C82.5514439,44.4270306 82.9288981,44.3873239 83.3223351,44.3873239 C83.6940968,44.3873239 83.9927323,44.4378397 84.2182416,44.5386505 C84.4435318,44.6396819 84.6149626,44.7711552 84.7329718,44.9330702 C84.850981,45.0952058 84.9297997,45.2736652 84.9689902,45.468228 C85.0083996,45.6627907 85.0281042,45.857574 85.0281042,46.0519161 C85.0281042,46.4842778 85.0173761,46.9058303 84.9959199,47.3165739 C84.9744637,47.7273174 84.9637356,48.1164428 84.9637356,48.4839502 C84.9637356,48.7506467 84.9744637,49.0027841 84.9959199,49.240583 C85.0173761,49.4783819 85.0567855,49.6983128 85.1139291,49.8999345 L84.4809707,49.8999345 L84.2558994,49.1433017 L84.2020399,49.1433017 C84.1376713,49.2443331 84.057101,49.3431586 83.960767,49.4406606 C83.8639951,49.5377213 83.7477374,49.6244143 83.611994,49.6998569 C83.4760316,49.7755202 83.3186131,49.8388303 83.1399572,49.8891255 C82.9610824,49.9394206 82.7572484,49.9647887 82.5284551,49.9647887 C82.2994428,49.9647887 82.0866322,49.9288321 81.8902421,49.8566983 C81.6931952,49.7847851 81.523516,49.6819889 81.3805475,49.548751 C81.2373601,49.4152924 81.1248244,49.2551421 81.0427216,49.0676384 C80.9603998,48.8803552 80.9192388,48.6677039 80.9192388,48.429905 C80.9192388,48.1129134 80.9836075,47.8482022 81.1123448,47.6353303 C81.2410821,47.4228995 81.4217084,47.253705 81.6542237,47.1273054 C81.8865201,47.001347 82.1654509,46.9113451 82.4910162,46.8572999 C82.8161435,46.8032547 83.1756446,46.7761218 83.5690815,46.7761218 L83.8639951,46.7761218 C83.960767,46.7761218 84.0588525,46.7834014 84.1591275,46.7977399 C84.1805837,46.5815591 84.1915308,46.3869964 84.1915308,46.2140518 C84.1915308,45.8178673 84.1124931,45.5403618 83.9552934,45.3817557 C83.7978749,45.2233701 83.511719,45.1439568 83.0972637,45.1439568 C82.9753136,45.1439568 82.8448248,45.1532217 82.7053594,45.1717514 C82.5661129,45.1905018 82.4227066,45.2160906 82.276454,45.2498412 C82.1297635,45.2831507 81.9902981,45.3239604 81.8578388,45.371829 C81.7255985,45.4201388 81.6095598,45.4737428 81.5095037,45.5330822 L81.2410821,44.8739513 Z" id="Fill-35" fill="#253B80"></path>
                    <path d="M89.5867765,45.3389589 C89.3659202,45.2662026 89.1556668,45.2296012 88.9566931,45.2296012 C88.6397339,45.2296012 88.3890992,45.315302 88.2050147,45.4864802 C88.0209302,45.6578816 87.9065542,45.8745884 87.8623378,46.1370468 L87.8623378,49.9647887 L86.9782359,49.9647887 L86.9782359,44.4969048 L87.5970396,44.4969048 L87.762851,45.1639866 L87.8070674,45.1639866 C87.9469355,44.9160348 88.1147772,44.7247705 88.3101414,44.5897472 C88.50528,44.4549472 88.7541099,44.3873239 89.05618,44.3873239 C89.2698173,44.3873239 89.5093978,44.4239253 89.7746961,44.4969048 L89.5867765,45.3389589 Z" id="Fill-37" fill="#253B80"></path>
                    <path d="M92.7530398,45.1324051 C92.3055227,45.1324051 91.9475554,45.2425381 91.6786739,45.4625869 C91.4095604,45.6824184 91.2485563,46.0586518 91.1954296,46.5906354 L94.0146252,46.5906354 C94.0146252,46.0514834 93.9048919,45.6735122 93.6851932,45.4571562 C93.4650306,45.2408003 93.1543901,45.1324051 92.7530398,45.1324051 L92.7530398,45.1324051 Z M94.7082884,49.4112999 C94.4807019,49.5816041 94.1946529,49.716718 93.8501412,49.8159897 C93.5049336,49.9152615 93.1395425,49.9647887 92.7530398,49.9647887 C92.3210663,49.9647887 91.9459314,49.8989696 91.6274031,49.767983 C91.3091069,49.636562 91.0476492,49.4486625 90.8432622,49.2038501 C90.6386431,48.9588205 90.4866868,48.6664359 90.3885532,48.3256101 C90.2899556,47.9850016 90.2407728,47.601817 90.2407728,47.1760563 C90.2407728,46.2680565 90.4567595,45.5759782 90.8887331,45.1006903 C91.3204746,44.6251851 91.9380436,44.3873239 92.7414401,44.3873239 C92.9991859,44.3873239 93.2569316,44.4138254 93.5144454,44.4670455 C93.7721911,44.5204828 94.0034895,44.6214923 94.2078766,44.7705085 C94.4124956,44.919742 94.5792995,45.1306673 94.7082884,45.4039362 C94.8368133,45.677205 94.9015397,46.0371465 94.9015397,46.4844125 C94.9015397,46.7183636 94.8785723,46.9775128 94.8333334,47.2612085 L91.1840619,47.2612085 C91.1840619,47.5735778 91.2183971,47.8503222 91.2866034,48.0914418 C91.3548098,48.3327786 91.4608312,48.5369699 91.6048997,48.7033641 C91.7487362,48.87041 91.9361877,48.9981382 92.167486,49.086766 C92.3985524,49.1753937 92.6806576,49.2197076 93.0144975,49.2197076 C93.2717793,49.2197076 93.529757,49.1771315 93.7875028,49.0921966 C94.0447845,49.0068272 94.2380358,48.9075555 94.3672567,48.7939469 L94.7082884,49.4112999 Z" id="Fill-39" fill="#253B80"></path>
                </g>
            </g>
        </g>
    </g>
</svg>