<?xml version="1.0" encoding="UTF-8"?>
<svg width="21px" height="24px" viewBox="0 0 21 24" version="1.1" xmlns="http://www.w3.org/2000/svg" xmlns:xlink="http://www.w3.org/1999/xlink">
    <!-- Generator: Sketch 63.1 (92452) - https://sketch.com -->
    <title>Icono</title>
    <desc>Created with Sketch.</desc>
    <defs>
        <polygon id="path-1" points="0 0.0110734285 20.0100285 0.0110734285 20.0100285 23.2258065 0 23.2258065"></polygon>
    </defs>
    <g id="Symbols" stroke="none" stroke-width="1" fill="none" fill-rule="evenodd">
        <g id="Menu-Op-2.2" transform="translate(-1060.000000, -157.000000)">
            <g id="Menu">
                <g id="Icono" transform="translate(1060.647316, 157.000000)">
                    <mask id="mask-2" fill="white">
                        <use xlink:href="#path-1"></use>
                    </mask>
                    <g id="Clip-2"></g>
                    <path d="M10.0014579,21.4111555 C10.9134721,20.182516 11.8057416,18.9804527 12.717642,17.7519836 L7.2858998,17.7519836 C8.19711738,18.9798281 9.08921612,20.1819481 10.0014579,21.4111555 M3.93543686,8.19499014 C4.34689023,5.05132897 6.86591123,2.90393564 9.64024841,2.74618188 C10.9595622,2.6711665 12.181404,2.98661724 13.2806235,3.71473776 C14.8921255,4.78215948 15.7982789,6.30143387 16.0681049,8.19396798 C16.5354923,8.22173673 16.9844436,8.24842653 17.4318017,8.27505955 C17.3256808,5.18988879 14.5688692,1.44491206 10.0968245,1.3827305 C5.80373448,1.32299077 2.75655552,4.7661456 2.59740255,8.27193627 C3.03719278,8.24660935 3.47874695,8.22122565 3.93543686,8.19499014 M5.24063911,10.9393832 C5.04120002,13.6811073 6.58766383,15.4951053 8.51832528,16.1399196 C10.4359563,16.780418 12.3598465,16.0378736 13.274023,15.0166764 L13.038167,15.0166764 C12.500848,15.0166196 11.9635858,15.0158246 11.4262667,15.0168468 C11.1492712,15.0173578 10.9211538,14.9226942 10.7773642,14.6769209 C10.5077658,14.2160959 10.8371675,13.6658885 11.3941175,13.6610616 C12.2945807,13.6532818 13.1952147,13.6607777 14.0957348,13.655099 C14.1726085,13.6546447 14.2936944,13.6253995 14.3191862,13.5730988 C14.7228441,12.7447496 14.8193488,11.8638158 14.756359,10.9381907 C14.0934018,10.9381907 13.4439872,10.9379636 12.7945725,10.9382475 C12.1040751,10.9385882 11.4541484,10.7770297 10.8876958,10.3803738 C10.564155,10.1538513 10.2830056,9.86696427 9.97323487,9.5989873 C9.95428674,9.61977128 9.9180406,9.65645556 9.88532235,9.69614954 C9.53293254,10.1240382 9.09985667,10.4431801 8.59189867,10.6655004 C8.04490638,10.9048568 7.46906512,10.9487531 6.8820143,10.9409733 C6.33928961,10.9337613 5.79639421,10.9393832 5.24063911,10.9393832 M9.41070852,0.0110450351 L10.5919228,0.0110450351 C10.6653824,0.0250145911 10.7382161,0.0454010569 10.8123016,0.0519883272 C11.7856554,0.137963562 12.7165608,0.38850698 13.6040506,0.791068696 C15.0835415,1.46211846 16.2922392,2.4644625 17.2294037,3.79020743 C18.143125,5.08267529 18.7044564,6.51784841 18.8067081,8.09345532 C18.8847767,9.29744933 18.870722,10.5093935 18.8518308,11.7171922 C18.8248596,13.4393659 17.4577487,14.8885653 15.7330131,14.991463 C15.2656826,15.0192886 14.9572775,15.1383137 14.6926864,15.5195236 C14.4724215,15.8368483 14.17056,16.0976702 13.9089278,16.3791056 C13.9467103,16.3791056 14.0185766,16.3787081 14.0903861,16.3791624 C14.6429547,16.3826832 15.1962061,16.369679 15.7479212,16.3933591 C17.0520424,16.4493509 18.0887273,17.0051802 18.8075047,18.1035508 C19.3501156,18.9327518 19.6818502,19.8566165 19.9533833,20.8017194 C20.0537572,21.1510151 20.012902,21.5070116 19.8928403,21.8496632 C19.5985467,22.6895402 18.8207627,23.2243584 17.8781925,23.2246991 C12.6244945,23.2265163 7.37073965,23.2258087 2.11704169,23.2253806 C2.0564987,23.2253806 1.9958419,23.2240177 1.93541271,23.2206672 C0.687339375,23.1520688 -0.249768301,21.9593186 0.0594334184,20.7727581 C0.301377789,19.8445209 0.65018282,18.9479139 1.1749836,18.135181 C1.77506482,17.2058648 2.61140028,16.5967127 3.72336568,16.4628094 C4.3888834,16.3826832 5.066578,16.4025586 5.73886698,16.3793328 C5.87019521,16.3747898 6.00180794,16.3786513 6.1174883,16.3786513 C5.76276553,15.9932392 5.40468559,15.6271914 5.07647883,15.2361006 C4.94822328,15.0832305 4.83225841,15.0140074 4.62940524,15.0140642 C2.63114503,15.0145185 1.14761407,13.5300544 1.14254986,11.5341115 C1.14016,10.6048521 1.12377242,9.67502484 1.15136956,8.74656045 C1.16701742,8.22071457 1.22482915,7.69072324 1.32292701,7.17384967 C1.57596714,5.84106318 2.12557689,4.63246944 2.94825603,3.55056708 C4.20497837,1.89795725 5.83918399,0.801858191 7.85138502,0.285268554 C8.36099315,0.154431738 8.89040294,0.100427479 9.41070852,0.0110450351" id="Fill-1" fill="#FFFFFF" mask="url(#mask-2)"></path>
                </g>
            </g>
        </g>
    </g>
</svg>