<?xml version="1.0" encoding="UTF-8"?>
<svg width="17px" height="17px" viewBox="0 0 17 17" version="1.1" xmlns="http://www.w3.org/2000/svg" xmlns:xlink="http://www.w3.org/1999/xlink">
    <!-- Generator: Sketch 63.1 (92452) - https://sketch.com -->
    <title>Fill 3</title>
    <desc>Created with Sketch.</desc>
    <g id="Symbols" stroke="none" stroke-width="1" fill="none" fill-rule="evenodd">
        <g id="Menu-Op-2.2" transform="translate(-1248.000000, -9.000000)" fill="#1DA1F2">
            <g id="Menu">
                <g id="Lang-&amp;-Sociaal-container" transform="translate(928.356255, 0.000000)">
                    <g id="Lang-&amp;-Social" transform="translate(73.204741, 9.000000)">
                        <g id="Twitter" transform="translate(246.359912, 0.000000)">
                            <g id="Group-5">
                                <path d="M11.8473652,7.089 C11.8514187,7.16914286 11.8530402,7.24847619 11.8530402,7.3302381 C11.8530402,9.79280952 9.97462928,12.6342381 6.5412801,12.6342381 C5.48654874,12.6342381 4.50559183,12.325 3.67948019,11.796381 C3.82540766,11.813381 3.97376726,11.8222857 4.12536969,11.8222857 C4.99931312,11.8222857 5.80434635,11.524381 6.44318441,11.0240952 C5.62599055,11.0095238 4.9376993,10.470381 4.69935109,9.72966667 C4.81285024,9.75152381 4.93040293,9.76366667 5.05038774,9.76366667 C5.22063646,9.76366667 5.38521022,9.74019048 5.54248761,9.69728571 C4.68800118,9.52647619 4.04510958,8.77280952 4.04510958,7.87019048 L4.04510958,7.84671429 C4.29723983,7.98595238 4.58423053,8.07014286 4.89067822,8.07985714 C4.38966056,7.74552381 4.06051304,7.174 4.06051304,6.528 C4.06051304,6.18638095 4.15212306,5.86580952 4.31264329,5.59057143 C5.23360779,6.7182381 6.60937959,7.46057143 8.16026435,7.53828571 C8.12864673,7.40228571 8.11243257,7.25980952 8.11243257,7.11328571 C8.11243257,6.08438095 8.94827271,5.2497619 9.97949353,5.2497619 C10.5161824,5.2497619 11.0017966,5.47642857 11.342294,5.83828571 C11.7671051,5.75490476 12.1675949,5.59947619 12.5275494,5.3857619 C12.3881076,5.82128571 12.0921991,6.18638095 11.706302,6.41709524 C12.084092,6.3717619 12.4440464,6.27138095 12.7780582,6.12404762 C12.5291708,6.49804762 12.2121839,6.82590476 11.8473652,7.089 M8.13351098,0.756095238 C3.64218761,0.756095238 0.000486424914,4.39328571 0.000486424914,8.87804762 C0.000486424914,13.3628095 3.64218761,17 8.13351098,17 C12.6248344,17 16.2673463,13.3628095 16.2673463,8.87804762 C16.2673463,4.39328571 12.6248344,0.756095238 8.13351098,0.756095238" id="Fill-3"></path>
                            </g>
                        </g>
                    </g>
                </g>
            </g>
        </g>
    </g>
</svg>