<?xml version="1.0" encoding="UTF-8"?>
<svg width="26px" height="23px" viewBox="0 0 26 23" version="1.1" xmlns="http://www.w3.org/2000/svg" xmlns:xlink="http://www.w3.org/1999/xlink">
    <!-- Generator: Sketch 63.1 (92452) - https://sketch.com -->
    <title>Marker icon</title>
    <desc>Created with Sketch.</desc>
    <g id="Symbols" stroke="none" stroke-width="1" fill="none" fill-rule="evenodd">
        <g id="Footer" transform="translate(-120.000000, -225.000000)" fill="#FFFFFF" fill-rule="nonzero">
            <g id="Contact-Data">
                <g transform="translate(119.000000, 213.000000)">
                    <g id="Location-col" transform="translate(0.044287, 0.000000)">
                        <g id="Location-Title">
                            <g id="Marker-icon" transform="translate(13.000000, 23.500000) scale(-1, 1) translate(-13.000000, -23.500000) translate(0.000000, 12.000000)">
                                <path d="M22.9081365,14.1079092 C22.5528696,13.876118 22.1068171,14.0302775 21.9117945,14.4521387 C21.7166741,14.874058 21.8463957,15.4039994 22.2015647,15.6357325 C23.0755712,16.2061168 23.5768483,16.8384438 23.5768483,17.3705932 C23.5768483,18.0214565 22.8005732,19.0302046 20.6217692,19.909547 C18.4692812,20.7783719 15.5927589,21.2567718 12.5221435,21.2567718 C9.45152803,21.2567718 6.5750058,20.7783719 4.42251781,19.909547 C2.24371376,19.0302627 1.46743869,18.0214565 1.46743869,17.3705932 C1.46743869,16.8384438 1.96871575,16.2061168 2.84272223,15.6356744 C3.19789131,15.4039413 3.32761289,14.8739999 3.13249246,14.4520806 C2.93737203,14.0302194 2.49141741,13.8760599 2.1361505,14.1078511 C1.16167338,14.7438389 0,15.8261511 0,17.3705932 C0,18.5544776 0.685391698,20.2423873 3.95044278,21.5601516 C6.25099533,22.4886531 9.29514798,23 12.5221435,23 C15.749139,23 18.7932916,22.4886531 21.0938442,21.5601516 C24.3588953,20.2423873 25.044287,18.5544776 25.044287,17.3705932 C25.044287,15.8261511 23.8826136,14.7438389 22.9081365,14.1079092 Z" id="Path"></path>
                                <path d="M7.49903337,19.3937576 C8.8496418,19.7846794 10.6335538,20 12.5221435,20 C14.4107332,20 16.1946452,19.7847249 17.5452536,19.3937576 C19.1976088,18.9155351 20.0354296,18.223219 20.0354296,17.3362146 C20.0354296,16.4491647 19.1976088,15.7569395 17.5452536,15.278717 C17.1784381,15.1725564 16.7795096,15.0794387 16.3553875,15 C16.1250523,15.4077366 15.8837169,15.8274254 15.6313816,16.2592027 C16.1008345,16.3313701 16.5415897,16.4198524 16.9418488,16.5243315 C18.1578843,16.8416771 18.6021435,17.1989239 18.6934704,17.33626 C18.6020992,17.4736416 18.1579286,17.8308884 16.9418931,18.1481885 C15.7909264,18.4485376 14.3100918,18.6198669 12.7504385,18.6351821 C12.674902,18.6409082 12.5987889,18.6441348 12.5221435,18.6441348 C12.4454538,18.6441348 12.369385,18.6409082 12.2938042,18.6351821 C10.7341508,18.6198669 9.25331626,18.448583 8.10234949,18.1481885 C6.886314,17.8308884 6.44209911,17.4735962 6.35077225,17.33626 C6.44209911,17.1989239 6.88635835,16.8416771 8.10239384,16.5243315 C8.50265297,16.4198978 8.94340817,16.3313701 9.41290539,16.2592027 C9.16057004,15.8274709 8.91923472,15.4076912 8.68889943,15 C8.26477734,15.0794841 7.8658045,15.1725564 7.49903337,15.278717 C5.84667817,15.7569395 5.0088574,16.4492102 5.0088574,17.3362146 C5.0088574,18.223219 5.84667817,18.9154896 7.49903337,19.3937576 Z" id="Path"></path>
                                <path d="M12.5221435,17 C13.1456967,17 13.712092,16.7038967 14.0373875,16.2079107 C16.3166978,12.7326142 19.0336581,8.15241377 19.0336581,6.06824547 C19.0336581,2.72220032 16.1126293,0 12.5221435,0 C8.93165772,0 6.01062888,2.72220032 6.01062888,6.06824547 C6.01062888,8.15241377 8.72763587,12.7326142 11.0068995,16.2079107 C11.332195,16.7038967 11.898637,17 12.5221435,17 Z M9.90488259,5.65159459 C9.90488259,4.30672701 11.0790006,3.21257238 12.5221435,3.21257238 C13.9652864,3.21257238 15.1394044,4.30672701 15.1394044,5.65159459 C15.1394044,6.99650568 13.9652864,8.09066031 12.5221435,8.09066031 C11.0790006,8.09066031 9.90488259,6.9965492 9.90488259,5.65159459 Z" id="Shape"></path>
                            </g>
                        </g>
                    </g>
                </g>
            </g>
        </g>
    </g>
</svg>