<?xml version="1.0" encoding="UTF-8"?>
<svg width="23px" height="22px" viewBox="0 0 23 22" version="1.1" xmlns="http://www.w3.org/2000/svg" xmlns:xlink="http://www.w3.org/1999/xlink">
    <!-- Generator: Sketch 63.1 (92452) - https://sketch.com -->
    <title>Phone icon</title>
    <desc>Created with Sketch.</desc>
    <g id="Symbols" stroke="none" stroke-width="1" fill="none" fill-rule="evenodd">
        <g id="Footer" transform="translate(-383.000000, -226.000000)" fill="#FFFFFF" fill-rule="nonzero">
            <g id="Contact-Data">
                <g transform="translate(119.000000, 213.000000)">
                    <g id="Phone-col" transform="translate(264.465899, 0.000000)">
                        <g id="Phone-Title">
                            <g id="Phone-icon" transform="translate(0.000000, 13.000000)">
                                <path d="M12.9883899,15.3775903 L18.3595383,16.2242698 C18.7474341,16.2847102 19.0336581,16.6181028 19.0336581,17.0099914 L19.0336581,20.7307893 C19.0318756,21.0788781 18.805872,21.3862794 18.4737422,21.4923654 C14.2236152,22.8817271 8.74976267,21.3949913 4.67887231,17.3290301 C0.607981948,13.2630688 -0.88380546,7.80141256 0.508450146,3.55891134 C0.614726774,3.2273774 0.922680636,3.00177933 1.27139511,3 L4.99888093,3 C5.39147397,3 5.72546578,3.28571046 5.7860149,3.67291025 L6.63381965,9.03442163 C6.66400939,9.22606406 6.62312086,9.42211773 6.51882275,9.58581221 L5.19873762,11.6536258 C5.00888078,11.9549155 5.0036769,12.3368676 5.18525522,12.6431997 C6.20712975,14.3651167 7.64661455,15.8026994 9.37114248,16.8235557 C9.67851715,17.005616 10.0621665,17.0004182 10.3644778,16.8100975 L12.4360082,15.4923809 C12.5999969,15.3882699 12.796403,15.3474547 12.9883899,15.3775903 L12.9883899,15.3775903 Z" id="Shape"></path>
                                <ellipse id="Oval" cx="13.523915" cy="8.5" rx="1.50265722" ry="1.5"></ellipse>
                                <path d="M20.6519043,9 C20.6475083,4.79595822 17.2345184,1.38900364 13.0230292,1.38461538 L13.0230292,0 C18.0000998,0.00553227923 22.0334305,4.03173059 22.0389725,9 L20.6519043,9 Z" id="Shape"></path>
                                <path d="M13.0230292,5.33333333 C15.0516606,5.33333333 16.6961913,6.97495593 16.6961913,9 L18.0318866,9 C18.0287583,6.2398708 15.7880479,4.00312283 13.0230292,4 L13.0230292,5.33333333 Z" id="Shape"></path>
                            </g>
                        </g>
                    </g>
                </g>
            </g>
        </g>
    </g>
</svg>