<?xml version="1.0" encoding="UTF-8"?>
<svg width="163px" height="56px" viewBox="0 0 163 56" version="1.1" xmlns="http://www.w3.org/2000/svg" xmlns:xlink="http://www.w3.org/1999/xlink">
    <!-- Generator: Sketch 63.1 (92452) - https://sketch.com -->
    <title>Fill 1</title>
    <desc>Created with Sketch.</desc>
    <g id="Symbols" stroke="none" stroke-width="1" fill="none" fill-rule="evenodd">
        <g id="Brands-Partial" transform="translate(-71.000000, -68.000000)" fill="#E73E1D">
            <g id="Brands-Cols">
                <g id="Group-48-Copy-3">
                    <g id="Agilia">
                        <g id="Logo" transform="translate(71.000000, 68.000000)">
                            <g id="Group-3">
                                <path d="M144.731103,35.5902033 C140.686741,35.5902033 137.371947,32.2274492 137.371947,28.247777 C137.371947,24.3241049 140.686741,20.9613508 144.731103,20.9613508 C148.831585,20.9613508 152.146379,24.3241049 152.146379,28.247777 C152.146379,32.2274492 148.831585,35.5902033 144.731103,35.5902033 L144.731103,35.5902033 Z M159.05473,34.5812852 L159.05473,14.8518426 L152.146379,14.8518426 L152.146379,16.8127607 C149.954916,15.0758426 147.42765,14.3469246 144.731103,14.3469246 C136.866862,14.3469246 130.575837,20.5124328 130.575837,28.247777 C130.575837,35.9262033 136.866862,42.2046295 144.731103,42.2046295 C147.477331,42.2046295 150.000917,41.4775475 152.131659,39.7488918 L152.131659,41.4757115 L152.146379,41.4757115 L162.850689,41.4757115 L162.850689,34.5812852 L159.05473,34.5812852 Z M123.98949,41.4766295 L117.080219,41.4766295 L117.080219,21.7471869 L113.27046,21.7471869 L113.27046,14.8527607 L123.98949,14.8527607 L123.98949,41.4766295 Z M123.98949,7.25236721 C123.98949,9.71912131 122.136591,11.6249574 119.664525,11.6249574 C117.19246,11.6249574 115.28252,9.71912131 115.28252,7.25236721 C115.28252,4.78653115 117.19246,2.93669508 119.664525,2.93669508 C122.136591,2.93669508 123.98949,4.78653115 123.98949,7.25236721 L123.98949,7.25236721 Z M103.833003,34.5822033 L109.276699,34.5822033 L109.276699,41.4766295 L96.9237316,41.4766295 L96.9237316,-9.18032787e-05 L103.833003,-9.18032787e-05 L103.833003,34.5822033 Z M88.0907209,41.4766295 L81.1814499,41.4766295 L81.1814499,21.7471869 L77.3707708,21.7471869 L77.3707708,14.8527607 L88.0907209,14.8527607 L88.0907209,41.4766295 Z M79.3837515,7.25236721 C79.3837515,4.78653115 81.2936911,2.93669508 83.7648365,2.93669508 C86.2369019,2.93669508 88.0907209,4.78653115 88.0907209,7.25236721 C88.0907209,9.71912131 86.2369019,11.6249574 83.7648365,11.6249574 C81.2936911,11.6249574 79.3837515,9.71912131 79.3837515,7.25236721 L79.3837515,7.25236721 Z M56.461716,35.5911213 C52.4173545,35.5911213 49.1025604,32.2283672 49.1025604,28.2486951 C49.1025604,24.325023 52.4173545,20.9622689 56.461716,20.9622689 C60.5621981,20.9622689 63.8760722,24.325023 63.8760722,28.2486951 C63.8760722,32.2283672 60.5621981,35.5911213 56.461716,35.5911213 L56.461716,35.5911213 Z M63.8760722,16.8145967 C61.6855297,15.0776787 59.1573437,14.3487607 56.461716,14.3487607 C48.5974752,14.3487607 42.3064506,20.5142689 42.3064506,28.2486951 C42.3064506,35.9271213 48.5974752,42.2055475 56.461716,42.2055475 C59.2134643,42.2055475 61.7416502,41.4766295 63.8760722,39.7397115 L63.8760722,40.9166295 C63.8760722,47.0261377 60.5621981,49.0430557 56.461716,49.0430557 C54.2141329,49.0430557 52.1367516,47.9790557 50.7880177,46.3532197 L44.4408725,49.0990557 C46.9129379,53.0236459 51.3501435,55.657482 56.461716,55.657482 C61.6855297,55.657482 70.7853431,53.8076459 70.7853431,39.5707934 L70.7853431,14.8527607 L63.8760722,14.8527607 L63.8760722,16.8145967 Z M13.9867197,25.614859 L20.3347849,9.13617049 L26.6258095,25.614859 L13.9867197,25.614859 Z M7.53009335,-9.18032787e-05 L7.53009335,6.89433443 L13.8634384,6.89433443 L-0.00018400189,41.4766295 L7.97629794,41.4766295 L11.3472126,32.6212852 L29.2653166,32.6212852 L32.6923518,41.4766295 L40.6688338,41.4766295 L24.0976235,-9.18032787e-05 L7.53009335,-9.18032787e-05 Z M162.246243,12.399777 L162.246243,11.1540066 C162.246243,10.6784656 162.035561,10.6041049 161.817518,10.6041049 C161.578316,10.6041049 161.330833,10.6977443 161.330833,11.1439082 L161.330833,12.399777 L160.726387,12.399777 L160.726387,11.1540066 C160.726387,10.6784656 160.515705,10.6041049 160.299503,10.6041049 C160.05846,10.6041049 159.812818,10.6977443 159.812818,11.1439082 L159.812818,12.399777 L159.207451,12.399777 L159.207451,10.0698098 L159.812818,10.0698098 L159.812818,10.241482 C159.959099,10.1340721 160.107221,10.0257443 160.416344,10.0257443 C160.721787,10.0257443 160.99227,10.1340721 161.155111,10.3736787 C161.375914,10.1092852 161.691477,10.0257443 161.936199,10.0257443 C162.452325,10.0257443 162.850689,10.325023 162.850689,11.055777 L162.850689,12.399777 L162.246243,12.399777 Z M158.529404,12.4052852 C158.529404,12.4052852 158.351843,12.4640393 158.06204,12.4640393 C157.604795,12.4640393 157.369273,12.1647607 157.369273,11.7084984 L157.369273,10.6481705 L157.000349,10.6481705 L157.000349,10.0698098 L157.369273,10.0698098 L157.369273,9.28030164 L157.974639,9.28030164 L157.974639,10.0698098 L158.592885,10.0698098 L158.592885,10.6481705 L157.974639,10.6481705 L157.974639,11.5808918 C157.974639,11.7424656 158.017879,11.894859 158.234081,11.894859 C158.386803,11.894859 158.529404,11.8700721 158.529404,11.8700721 L158.529404,12.4052852 Z" id="Fill-1"></path>
                            </g>
                        </g>
                    </g>
                </g>
            </g>
        </g>
    </g>
</svg>