<?xml version="1.0" encoding="UTF-8"?>
<svg width="103px" height="48px" viewBox="0 0 103 48" version="1.1" xmlns="http://www.w3.org/2000/svg" xmlns:xlink="http://www.w3.org/1999/xlink">
    <!-- Generator: Sketch 63.1 (92452) - https://sketch.com -->
    <title>Group 6</title>
    <desc>Created with Sketch.</desc>
    <defs>
        <polygon id="path-1" points="0 0.832164103 102.783035 0.832164103 102.783035 47.5897436 0 47.5897436"></polygon>
    </defs>
    <g id="Symbols" stroke="none" stroke-width="1" fill="none" fill-rule="evenodd">
        <g id="Brands-Partial" transform="translate(-679.000000, -71.000000)">
            <g id="Brands-Cols">
                <g id="Group-48-Copy-3">
                    <g id="FRRA" transform="translate(583.000000, 0.000000)">
                        <g id="Group-7" transform="translate(96.000000, 70.500000)">
                            <g id="Group-6" transform="translate(0.000000, 0.500000)">
                                <mask id="mask-2" fill="white">
                                    <use xlink:href="#path-1"></use>
                                </mask>
                                <g id="Clip-5"></g>
                                <path d="M76.3703365,28.0945231 L77.1676698,24.8600615 C78.326527,20.3981128 79.4820825,14.7874462 80.494019,10.039959 L80.7878603,10.039959 C81.9434159,14.715241 83.1006222,20.3981128 84.2578286,24.8600615 L85.0551619,28.0945231 L76.3703365,28.0945231 Z M44.2987175,22.1244718 L39.8118603,22.1244718 L39.8118603,10.6126769 L44.2987175,10.6126769 C49.2197333,10.6126769 51.8263365,11.9107282 51.8263365,15.9378051 C51.8263365,19.9648821 49.2197333,22.1244718 44.2987175,22.1244718 L44.2987175,22.1244718 Z M88.4557968,0.832164103 L73.4038603,0.832164103 L61.7228444,38.9449846 L56.3858286,29.4631385 C60.9436698,27.0163692 63.982781,22.6266256 63.982781,15.9378051 C63.982781,4.28488205 55.2996063,0.832164103 45.1686857,0.832164103 L-0.00033015873,0.832164103 L-0.00033015873,47.5899077 L12.446654,47.5899077 L12.446654,31.9099077 L24.1177651,31.9099077 L24.1177651,22.1244718 L12.446654,22.1244718 L12.446654,10.6126769 L27.3648762,10.6126769 L27.3648762,47.5899077 L39.8118603,47.5899077 L39.8118603,31.9099077 L44.5876063,31.9099077 L52.6930032,47.5899077 L71.8108444,47.5899077 L74.1269079,37.6649846 L87.2985905,37.6649846 L89.6130032,47.5899077 L102.783035,47.5899077 L88.4557968,0.832164103 Z" id="Fill-4" fill="#61605F" mask="url(#mask-2)"></path>
                            </g>
                        </g>
                    </g>
                </g>
            </g>
        </g>
    </g>
</svg>